<svg width="40" height="40" viewBox="0 0 40 40" fill="none" xmlns="http://www.w3.org/2000/svg">
<rect x="0.5" y="0.5" width="39" height="39" stroke="#333333"/>
<path d="M25.9669 20.5585L20.4038 14.1838C20.3535 14.1261 20.2913 14.0798 20.2215 14.0481C20.1517 14.0164 20.0758 14 19.999 14C19.9222 14 19.8464 14.0164 19.7765 14.0481C19.7067 14.0798 19.6445 14.1261 19.5942 14.1838L14.0328 20.5585C14.016 20.5777 14.0051 20.6014 14.0014 20.6266C13.9977 20.6518 14.0014 20.6775 14.012 20.7007C14.0226 20.7238 14.0396 20.7435 14.0612 20.7573C14.0827 20.7711 14.1077 20.7785 14.1334 20.7785H15.491C15.5681 20.7785 15.6419 20.7452 15.6938 20.6869L19.3629 16.482V25.8667C19.3629 25.94 19.4233 26 19.497 26H20.5027C20.5764 26 20.6368 25.94 20.6368 25.8667V16.482L24.3059 20.6869C24.3561 20.7452 24.4299 20.7785 24.5087 20.7785H25.8663C25.9803 20.7785 26.0423 20.6452 25.9669 20.5585Z" fill="#333333"/>
</svg>
