<svg width="35" height="60" viewBox="0 0 35 60" fill="none" xmlns="http://www.w3.org/2000/svg">
<path d="M32.9746 58.6793C33.8141 57.8334 34.2857 56.6863 34.2857 55.4902C34.2857 54.2941 33.8141 53.147 32.9746 52.3011L10.8088 29.9728L32.9746 7.64445C33.7903 6.79372 34.2417 5.65428 34.2315 4.47157C34.2213 3.28886 33.7503 2.15751 32.9201 1.32117C32.0898 0.48484 30.9667 0.0104523 29.7926 0.000175476C28.6185 -0.0101051 27.4874 0.444557 26.6428 1.26623L1.31108 26.7837C0.471596 27.6296 0 28.7767 0 29.9728C0 31.1689 0.471596 32.316 1.31108 33.1619L26.6428 58.6793C27.4826 59.5249 28.6213 60 29.8087 60C30.9961 60 32.1349 59.5249 32.9746 58.6793Z" fill="white"/>
</svg>
