<svg width="35" height="60" viewBox="0 0 35 60" fill="none" xmlns="http://www.w3.org/2000/svg">
<path d="M1.32688 58.6793C0.477279 57.8334 0 56.6863 0 55.4902C0 54.2941 0.477279 53.147 1.32688 52.3011L23.7598 29.9728L1.32688 7.64445C0.501357 6.79371 0.0445654 5.65428 0.054891 4.47157C0.0652165 3.28886 0.541832 2.15751 1.38208 1.32117C2.22233 0.484837 3.35899 0.0104523 4.54724 0.000175476C5.73549 -0.0101013 6.88025 0.444557 7.73498 1.26623L33.3719 26.7837C34.2215 27.6296 34.6988 28.7767 34.6988 29.9728C34.6988 31.1689 34.2215 32.316 33.3719 33.1619L7.73498 58.6793C6.88512 59.5249 5.73262 60 4.53093 60C3.32923 60 2.17673 59.5249 1.32688 58.6793Z" fill="white"/>
</svg>
