<svg width="12" height="12" viewBox="0 0 12 12" fill="none" xmlns="http://www.w3.org/2000/svg">
<path d="M11.9669 6.55853L6.4038 0.183765C6.35351 0.126082 6.29134 0.0798202 6.2215 0.0481145C6.15166 0.0164089 6.07579 0 5.99901 0C5.92224 0 5.84636 0.0164089 5.77652 0.0481145C5.70668 0.0798202 5.64451 0.126082 5.59422 0.183765L0.032786 6.55853C0.0159804 6.57775 0.00508368 6.60136 0.00139388 6.62656C-0.00229593 6.65176 0.00137665 6.67748 0.0119741 6.70066C0.0225716 6.72384 0.0396473 6.74351 0.0611673 6.75731C0.0826873 6.77112 0.107745 6.77848 0.133354 6.77852H1.49103C1.56813 6.77852 1.64188 6.74519 1.69384 6.68686L5.36292 2.48201V11.8667C5.36292 11.94 5.42326 12 5.49701 12H6.50269C6.57644 12 6.63678 11.94 6.63678 11.8667V2.48201L10.3059 6.68686C10.3561 6.74519 10.4299 6.77852 10.5087 6.77852H11.8663C11.9803 6.77852 12.0423 6.6452 11.9669 6.55853Z" fill="#333333"/>
</svg>
