<svg width="14" height="10" viewBox="0 0 14 10" fill="none" xmlns="http://www.w3.org/2000/svg">
<path d="M6.42361 9.712C6.48783 9.80082 6.57376 9.87344 6.67401 9.92362C6.77425 9.97379 6.8858 10 6.99905 10C7.1123 10 7.22385 9.97379 7.32409 9.92362C7.42434 9.87344 7.51027 9.80082 7.5745 9.712L13.875 1.04593C13.9479 0.945973 13.9907 0.828898 13.9986 0.707422C14.0066 0.585946 13.9794 0.464717 13.9201 0.356905C13.8608 0.249093 13.7716 0.158821 13.6622 0.0958989C13.5528 0.0329764 13.4274 -0.000190883 13.2995 8.26379e-07H0.698558C0.571038 0.000502398 0.446075 0.0340962 0.337106 0.0971694C0.228137 0.160243 0.139286 0.250409 0.0801075 0.357972C0.020929 0.465534 -0.00633771 0.586424 0.00123966 0.707639C0.00881702 0.828855 0.0509517 0.945811 0.123113 1.04593L6.42361 9.712Z" fill="#333333"/>
</svg>
